<svg width="1225" height="162" viewBox="0 0 1225 162" fill="none" xmlns="http://www.w3.org/2000/svg">
<path d="M4.21631 138.771L5.82031 131.366C7.05078 125.507 7.69531 121.42 7.75391 119.105C7.79785 117.992 7.87842 117.238 7.99561 116.842C8.12744 116.432 8.46436 116.044 9.00635 115.678C9.56299 115.297 10.1929 115.106 10.896 115.106C11.3501 115.106 11.8701 115.253 12.4561 115.546C13.042 115.839 13.5327 116.769 13.9282 118.336C14.5435 120.871 16.1328 124.24 18.6963 128.444C21.2598 132.648 23.5669 136.017 25.6177 138.551C26.1743 136.032 26.7822 132.758 27.4414 128.729C27.9102 125.858 28.3496 123.368 28.7598 121.259C29.0967 119.501 29.3018 117.941 29.375 116.579C29.4482 115.29 29.8291 114.425 30.5176 113.986C31.2207 113.546 31.9238 113.327 32.627 113.327C33.2275 113.327 33.7402 113.664 34.165 114.337C34.6045 114.997 34.8242 115.824 34.8242 116.82C34.8242 117.611 34.6118 118.732 34.187 120.182C33.2642 123.537 32.3633 127.865 31.4844 133.168C30.6055 138.471 30.166 141.496 30.166 142.243V142.99C30.166 143.839 30.0928 144.469 29.9463 144.879C29.7998 145.29 29.4409 145.67 28.8696 146.022C28.313 146.388 27.5806 146.571 26.6724 146.571C26.1304 146.571 25.7349 146.52 25.4858 146.417C25.2515 146.315 24.9292 146.022 24.519 145.539C24.1089 145.041 23.6768 144.389 23.2227 143.583C22.5195 142.367 21.9995 141.54 21.6626 141.1C18.1616 136.647 14.7925 131.454 11.5552 125.521C11.1157 127.338 10.4419 131.586 9.53369 138.266L9.27002 140.243C9.15283 140.932 9.05029 141.928 8.9624 143.231C8.85986 144.799 8.479 145.927 7.81982 146.615C7.17529 147.304 6.55273 147.648 5.95215 147.648C5 147.648 4.31885 147.399 3.90869 146.901C3.51318 146.417 3.31543 145.436 3.31543 143.957C3.31543 142.785 3.6084 141.1 4.19434 138.903L4.21631 138.771ZM56.4321 138.639C52.5796 143.722 48.8589 146.264 45.27 146.264C43.9517 146.264 42.8164 145.744 41.8643 144.704C40.9121 143.664 40.436 142.338 40.436 140.727C40.436 136.845 42.1646 132.714 45.6216 128.334C49.0786 123.939 52.5649 121.742 56.0806 121.742C57.8677 121.742 59.0396 122.643 59.5962 124.445C61.2808 124.445 62.123 125.089 62.123 126.378C62.123 126.994 61.9619 128.107 61.6396 129.718C61.0537 132.736 60.7607 135.146 60.7607 136.947C60.7607 138.822 60.8853 140.141 61.1343 140.902C61.3979 141.664 61.5884 142.162 61.7056 142.396C61.8228 142.631 62.1743 142.88 62.7603 143.144C63.3462 143.422 63.6392 143.81 63.6392 144.308C63.6392 145.055 63.2583 145.678 62.4966 146.176C61.7495 146.674 60.9658 146.923 60.1455 146.923C57.3916 146.923 56.1538 144.162 56.4321 138.639ZM55.1138 126.444C53.6343 126.444 51.708 128.085 49.335 131.366C46.9766 134.633 45.7974 137.409 45.7974 139.694C45.7974 140.895 46.0464 141.496 46.5444 141.496C48.2729 141.496 50.397 139.965 52.9165 136.903C55.4507 133.827 56.7178 131.139 56.7178 128.839C56.7178 128.107 56.5493 127.528 56.2124 127.104C55.8901 126.664 55.5239 126.444 55.1138 126.444ZM85.0054 139.276C83.3794 141.107 81.4824 142.616 79.3145 143.803C77.1611 144.975 75.3008 145.561 73.7334 145.561C72.1807 145.561 70.9722 145.106 70.1079 144.198C69.2583 143.29 68.8335 142.038 68.8335 140.441C68.8335 138.17 69.6904 135.644 71.4043 132.86C73.1328 130.077 75.5205 127.66 78.5674 125.609C81.6289 123.544 84.3828 122.511 86.8291 122.511C88.1768 122.511 89.3413 122.877 90.3228 123.61C90.5571 123.786 90.7622 123.932 90.938 124.049C91.2896 124.298 91.6118 124.76 91.9048 125.434C92.2124 126.093 92.3662 126.627 92.3662 127.038C92.3662 127.301 92.0879 128.188 91.5312 129.696C90.96 131.264 90.5571 132.787 90.3228 134.267C90.103 135.731 89.6562 139.401 88.9824 145.275C88.3818 150.387 86.9536 154.123 84.6978 156.481C82.4419 158.839 79.937 160.019 77.1831 160.019C74.2974 160.019 71.4922 159.044 68.7676 157.096C66.0576 155.163 64.7026 153.566 64.7026 152.306C64.7026 151.193 65.2446 150.636 66.3286 150.636C66.7534 150.636 67.6177 151.061 68.9214 151.911C72.2612 154.108 75.125 155.207 77.5127 155.207C79.3291 155.207 80.8525 154.064 82.083 151.779C83.3135 149.508 84.2876 145.341 85.0054 139.276ZM85.5327 127.06C84.4487 127.06 83.0278 127.711 81.27 129.015C79.5122 130.304 77.8862 132.047 76.3921 134.245C74.8979 136.442 74.1509 138.266 74.1509 139.716C74.1509 140.478 74.4292 140.858 74.9858 140.858C76.8755 140.858 78.7505 140.097 80.6108 138.573C82.4712 137.035 83.9727 135.27 85.1152 133.278C86.2725 131.286 86.8511 129.777 86.8511 128.751C86.8511 128.239 86.7192 127.829 86.4556 127.521C86.1919 127.213 85.8843 127.06 85.5327 127.06ZM113.007 138.639C109.155 143.722 105.434 146.264 101.845 146.264C100.527 146.264 99.3916 145.744 98.4395 144.704C97.4873 143.664 97.0112 142.338 97.0112 140.727C97.0112 136.845 98.7397 132.714 102.197 128.334C105.654 123.939 109.14 121.742 112.656 121.742C114.443 121.742 115.615 122.643 116.171 124.445C117.856 124.445 118.698 125.089 118.698 126.378C118.698 126.994 118.537 128.107 118.215 129.718C117.629 132.736 117.336 135.146 117.336 136.947C117.336 138.822 117.46 140.141 117.709 140.902C117.973 141.664 118.164 142.162 118.281 142.396C118.398 142.631 118.75 142.88 119.335 143.144C119.921 143.422 120.214 143.81 120.214 144.308C120.214 145.055 119.833 145.678 119.072 146.176C118.325 146.674 117.541 146.923 116.721 146.923C113.967 146.923 112.729 144.162 113.007 138.639ZM111.689 126.444C110.209 126.444 108.283 128.085 105.91 131.366C103.552 134.633 102.373 137.409 102.373 139.694C102.373 140.895 102.622 141.496 103.12 141.496C104.848 141.496 106.972 139.965 109.492 136.903C112.026 133.827 113.293 131.139 113.293 128.839C113.293 128.107 113.125 127.528 112.788 127.104C112.465 126.664 112.099 126.444 111.689 126.444ZM131.627 144.44C131.378 145.465 131.129 147.018 130.88 149.098L129.825 157.733C129.649 159.14 129.305 160.114 128.792 160.656C128.294 161.198 127.679 161.469 126.947 161.469C126.288 161.469 125.658 161.22 125.057 160.722C124.471 160.238 124.178 159.696 124.178 159.096C124.178 157.909 124.361 156.54 124.728 154.987C126.91 146.271 128.104 137.226 128.309 127.851V127.411C128.309 125.448 128.36 124.145 128.463 123.5C128.58 122.841 128.895 122.262 129.408 121.764C129.935 121.266 130.675 121.017 131.627 121.017C133.224 121.017 134.022 122.24 134.022 124.687C134.022 125.683 133.839 127.375 133.473 129.762L133.253 131.278C134.923 128.495 136.908 126.188 139.208 124.357C141.507 122.511 143.565 121.588 145.382 121.588C147.022 121.588 148.414 122.174 149.557 123.346C150.714 124.518 151.292 125.99 151.292 127.763C151.292 132.494 149.454 136.801 145.777 140.683C142.115 144.55 138.49 146.483 134.901 146.483C133.202 146.483 132.11 145.802 131.627 144.44ZM144.525 126.576C142.738 126.576 140.416 128.319 137.56 131.806C134.718 135.292 133.297 138.031 133.297 140.023C133.297 140.536 133.546 140.998 134.044 141.408C134.557 141.803 135.15 142.001 135.824 142.001C137.684 142.001 139.815 140.543 142.218 137.628C144.635 134.699 145.843 131.872 145.843 129.147C145.843 128.239 145.704 127.587 145.426 127.191C145.147 126.781 144.847 126.576 144.525 126.576ZM172.834 138.639C168.982 143.722 165.261 146.264 161.672 146.264C160.354 146.264 159.219 145.744 158.267 144.704C157.314 143.664 156.838 142.338 156.838 140.727C156.838 136.845 158.567 132.714 162.024 128.334C165.481 123.939 168.967 121.742 172.483 121.742C174.27 121.742 175.442 122.643 175.999 124.445C177.683 124.445 178.525 125.089 178.525 126.378C178.525 126.994 178.364 128.107 178.042 129.718C177.456 132.736 177.163 135.146 177.163 136.947C177.163 138.822 177.288 140.141 177.537 140.902C177.8 141.664 177.991 142.162 178.108 142.396C178.225 142.631 178.577 142.88 179.163 143.144C179.749 143.422 180.042 143.81 180.042 144.308C180.042 145.055 179.661 145.678 178.899 146.176C178.152 146.674 177.368 146.923 176.548 146.923C173.794 146.923 172.556 144.162 172.834 138.639ZM171.516 126.444C170.037 126.444 168.11 128.085 165.737 131.366C163.379 134.633 162.2 137.409 162.2 139.694C162.2 140.895 162.449 141.496 162.947 141.496C164.675 141.496 166.799 139.965 169.319 136.903C171.853 133.827 173.12 131.139 173.12 128.839C173.12 128.107 172.952 127.528 172.615 127.104C172.292 126.664 171.926 126.444 171.516 126.444ZM195.321 128.158C195.189 128.158 194.772 129.792 194.069 133.058C193.38 136.325 193.036 138.302 193.036 138.991C193.036 140.192 193.161 141.034 193.41 141.518C193.673 141.986 194.098 142.221 194.684 142.221C195.504 142.221 196.288 142.082 197.035 141.803C197.797 141.51 198.793 140.866 200.023 139.87C200.785 139.24 201.43 138.925 201.957 138.925C202.382 138.925 202.719 139.049 202.968 139.298C203.231 139.533 203.363 139.811 203.363 140.133C203.363 141.422 202.323 142.887 200.243 144.528C198.163 146.154 195.966 146.967 193.651 146.967C191.718 146.967 190.238 146.396 189.213 145.253C188.202 144.11 187.697 142.47 187.697 140.331C187.697 138.354 188.437 134.406 189.916 128.488C188.979 128.59 188.327 128.642 187.96 128.642H187.499C186.825 128.642 186.137 128.422 185.434 127.982C184.745 127.543 184.401 126.84 184.401 125.873C184.401 124.643 185.097 124.027 186.488 124.027L191.19 123.852C191.806 122.079 192.458 119.757 193.146 116.886C193.556 115.099 194.486 114.206 195.937 114.206C196.742 114.206 197.372 114.455 197.826 114.953C198.28 115.436 198.507 115.978 198.507 116.579C198.507 116.813 197.885 119.076 196.64 123.368C201.298 122.958 203.854 122.753 204.308 122.753C205.084 122.753 205.597 122.87 205.846 123.104C206.095 123.324 206.22 123.756 206.22 124.401C206.22 125.705 205.114 126.532 202.902 126.884L195.321 128.158ZM218.577 128.158C218.445 128.158 218.028 129.792 217.325 133.058C216.636 136.325 216.292 138.302 216.292 138.991C216.292 140.192 216.417 141.034 216.666 141.518C216.929 141.986 217.354 142.221 217.94 142.221C218.76 142.221 219.544 142.082 220.291 141.803C221.053 141.51 222.049 140.866 223.279 139.87C224.041 139.24 224.686 138.925 225.213 138.925C225.638 138.925 225.975 139.049 226.224 139.298C226.487 139.533 226.619 139.811 226.619 140.133C226.619 141.422 225.579 142.887 223.499 144.528C221.419 146.154 219.222 146.967 216.907 146.967C214.974 146.967 213.494 146.396 212.469 145.253C211.458 144.11 210.953 142.47 210.953 140.331C210.953 138.354 211.692 134.406 213.172 128.488C212.234 128.59 211.583 128.642 211.216 128.642H210.755C210.081 128.642 209.393 128.422 208.689 127.982C208.001 127.543 207.657 126.84 207.657 125.873C207.657 124.643 208.353 124.027 209.744 124.027L214.446 123.852C215.062 122.079 215.713 119.757 216.402 116.886C216.812 115.099 217.742 114.206 219.192 114.206C219.998 114.206 220.628 114.455 221.082 114.953C221.536 115.436 221.763 115.978 221.763 116.579C221.763 116.813 221.141 119.076 219.896 123.368C224.554 122.958 227.11 122.753 227.564 122.753C228.34 122.753 228.853 122.87 229.102 123.104C229.351 123.324 229.476 123.756 229.476 124.401C229.476 125.705 228.37 126.532 226.158 126.884L218.577 128.158ZM245.041 113.349C245.041 114.389 244.572 115.304 243.635 116.095C242.697 116.872 241.884 117.26 241.196 117.26C240.317 117.26 239.533 116.894 238.845 116.161C238.171 115.429 237.834 114.696 237.834 113.964C237.834 112.909 238.171 112.06 238.845 111.415C239.519 110.756 240.485 110.426 241.745 110.426C242.727 110.426 243.518 110.719 244.118 111.305C244.733 111.876 245.041 112.558 245.041 113.349ZM234.428 131.41V131.432C234.897 128.766 235.131 127.243 235.131 126.862C235.131 125.778 235.366 124.87 235.834 124.137C236.318 123.405 236.984 123.039 237.834 123.039C238.83 123.039 239.606 123.273 240.163 123.742C240.72 124.21 240.998 124.738 240.998 125.324C240.998 125.91 240.727 127.118 240.185 128.949L240.053 129.433C239.248 132.26 238.764 134.567 238.603 136.354C238.442 138.141 238.361 139.584 238.361 140.683C238.361 141.576 238.515 142.77 238.823 144.264C238.867 144.528 238.889 144.748 238.889 144.923C238.889 145.26 238.566 145.714 237.922 146.286C237.292 146.857 236.611 147.143 235.878 147.143C233.945 147.143 232.978 145.678 232.978 142.748C232.978 140.258 233.33 137.226 234.033 133.651C234.179 132.86 234.311 132.113 234.428 131.41ZM266.495 142.792C265.792 141.474 265.279 139.013 264.957 135.409C264.635 131.659 263.917 129.784 262.804 129.784C261.749 129.784 259.925 131.74 257.333 135.651C254.74 139.547 253.143 142.426 252.542 144.286C252.411 144.843 252.162 145.304 251.795 145.67C251.444 146.037 251.092 146.22 250.741 146.22C248.514 146.22 247.401 145.202 247.401 143.166C247.401 142.477 247.621 140.91 248.06 138.463C248.631 135.299 248.917 131.432 248.917 126.862C248.917 126.173 249.217 125.441 249.818 124.665C250.418 123.874 251.056 123.478 251.729 123.478C252.579 123.478 253.231 123.69 253.685 124.115C254.139 124.54 254.366 125.668 254.366 127.499C254.366 128.891 253.949 131.586 253.114 135.585C256.292 128.144 259.837 124.423 263.749 124.423C267.147 124.423 269.139 127.096 269.725 132.443C270.311 137.892 270.985 140.617 271.747 140.617C272.083 140.617 272.472 140.543 272.911 140.397C273.438 140.221 273.856 140.133 274.164 140.133C274.867 140.133 275.218 140.543 275.218 141.364C275.218 142.111 274.735 142.909 273.768 143.759C272.801 144.594 271.585 145.011 270.121 145.011C268.421 145.011 267.206 144.271 266.473 142.792H266.495ZM295.09 138.639C291.238 143.722 287.517 146.264 283.928 146.264C282.61 146.264 281.475 145.744 280.522 144.704C279.57 143.664 279.094 142.338 279.094 140.727C279.094 136.845 280.823 132.714 284.28 128.334C287.737 123.939 291.223 121.742 294.739 121.742C296.526 121.742 297.698 122.643 298.254 124.445C299.939 124.445 300.781 125.089 300.781 126.378C300.781 126.994 300.62 128.107 300.298 129.718C299.712 132.736 299.419 135.146 299.419 136.947C299.419 138.822 299.543 140.141 299.792 140.902C300.056 141.664 300.247 142.162 300.364 142.396C300.481 142.631 300.833 142.88 301.418 143.144C302.004 143.422 302.297 143.81 302.297 144.308C302.297 145.055 301.917 145.678 301.155 146.176C300.408 146.674 299.624 146.923 298.804 146.923C296.05 146.923 294.812 144.162 295.09 138.639ZM293.772 126.444C292.292 126.444 290.366 128.085 287.993 131.366C285.635 134.633 284.456 137.409 284.456 139.694C284.456 140.895 284.705 141.496 285.203 141.496C286.931 141.496 289.055 139.965 291.575 136.903C294.109 133.827 295.376 131.139 295.376 128.839C295.376 128.107 295.208 127.528 294.871 127.104C294.548 126.664 294.182 126.444 293.772 126.444ZM314.413 144.704C314.237 146.212 313.395 146.967 311.886 146.967C309.967 146.967 309.008 145.583 309.008 142.814C309.008 138.332 309.25 134.501 309.733 131.322C310.114 128.847 310.304 126.415 310.304 124.027C310.304 123.456 310.487 122.98 310.854 122.599C311.22 122.204 311.732 122.006 312.392 122.006C314.589 122.006 315.688 123.339 315.688 126.005C315.688 126.869 315.299 129.074 314.523 132.619C314.054 134.728 313.82 136.259 313.82 137.211C318.009 128.012 321.789 123.412 325.158 123.412C326.52 123.412 327.611 123.954 328.432 125.038C329.267 126.122 329.699 128.524 329.728 132.245C329.743 135.644 329.918 137.343 330.255 137.343C330.519 137.343 331.435 135.695 333.002 132.399C334.745 128.751 336.232 126.342 337.462 125.17C338.708 123.998 340.011 123.412 341.374 123.412C343 123.412 344.179 124.115 344.911 125.521C345.644 126.913 346.156 129.271 346.449 132.597C346.669 135.233 346.962 137.226 347.328 138.573C347.709 139.921 348.354 140.814 349.262 141.254C349.994 141.605 350.36 142.133 350.36 142.836C350.36 143.466 349.943 144.103 349.108 144.748C348.273 145.377 347.423 145.692 346.559 145.692C345.065 145.692 343.893 144.96 343.043 143.495C342.208 142.016 341.645 139.057 341.352 134.618C341.19 132.479 341.015 131.066 340.824 130.377C340.648 129.674 340.377 129.323 340.011 129.323C339.689 129.323 339.22 129.85 338.605 130.905C337.99 131.945 336.928 134.025 335.419 137.145C334.086 139.958 332.936 141.92 331.969 143.034C331.017 144.147 329.992 144.704 328.893 144.704C328.043 144.704 327.187 144.337 326.322 143.605C325.473 142.873 325.011 140.214 324.938 135.629C324.865 131.542 324.601 129.499 324.147 129.499C323.532 129.499 322.052 131.315 319.708 134.948C317.365 138.581 315.6 141.833 314.413 144.704ZM356.39 148.834C357.063 148.717 358.023 148.351 359.268 147.736C360.528 147.135 361.326 146.366 361.663 145.429C362.015 144.477 362.19 143.979 362.19 143.935C362.19 142.675 362.044 141.833 361.751 141.408C361.473 140.983 361.333 140.602 361.333 140.265C361.333 139.855 361.495 139.401 361.817 138.903C362.139 138.39 362.542 138.134 363.025 138.134C363.523 138.134 364.175 138.302 364.981 138.639C365.801 138.976 366.27 139.276 366.387 139.54C366.519 139.789 366.709 140.353 366.958 141.232C367.208 142.096 367.332 142.858 367.332 143.517C367.332 143.795 367.024 144.63 366.409 146.022C365.809 147.414 365.018 148.468 364.036 149.186C363.055 149.904 362.081 150.351 361.114 150.526C360.923 150.556 360.777 150.585 360.674 150.614C359.019 151.215 357.906 151.515 357.334 151.515C356.368 151.515 355.884 150.98 355.884 149.911C355.884 149.53 356.053 149.171 356.39 148.834Z" fill="#F05922"/>
<path d="M400.067 138.903C399.818 139.518 399.049 140.88 397.76 142.99C396.485 145.084 395.599 146.249 395.101 146.483C394.603 146.732 394.164 146.857 393.783 146.857C393.255 146.857 392.618 146.571 391.871 146C391.139 145.414 390.772 144.813 390.772 144.198C390.772 143.627 392.611 140.543 396.288 134.948C398.294 131.886 400.125 128.854 401.781 125.851C405.106 119.787 407.135 116.264 407.867 115.282C408.614 114.286 409.376 113.788 410.152 113.788C411.397 113.788 412.298 114.11 412.855 114.755C413.133 114.96 413.272 115.451 413.272 116.227C413.272 116.798 413.221 117.26 413.119 117.611C415.799 125.785 417.894 131.571 419.403 134.97C420.926 138.354 422.45 140.807 423.973 142.331C424.735 143.092 425.196 143.605 425.357 143.869C425.533 144.132 425.621 144.484 425.621 144.923C425.621 145.729 425.328 146.403 424.742 146.945C424.156 147.501 423.46 147.78 422.655 147.78C421.542 147.78 420.406 147.135 419.249 145.846C418.106 144.557 417.022 142.785 415.997 140.529C414.986 138.273 414.481 137.006 414.481 136.728C414.481 136.669 414.444 136.64 414.371 136.64C413.58 136.64 411.815 136.918 409.076 137.475C406.351 138.031 404.161 138.573 402.506 139.101C402.081 139.232 401.708 139.298 401.385 139.298C400.814 139.298 400.375 139.167 400.067 138.903ZM412.723 132.179C412.372 131.315 411.332 128.239 409.603 122.951C409.442 122.467 409.332 122.16 409.273 122.028L403.033 133.893C403.956 133.732 404.901 133.585 405.868 133.454C406.512 133.38 408.153 133.073 410.79 132.531C411.434 132.399 412.079 132.282 412.723 132.179ZM435.913 144.44C435.664 145.465 435.415 147.018 435.166 149.098L434.111 157.733C433.936 159.14 433.591 160.114 433.079 160.656C432.581 161.198 431.965 161.469 431.233 161.469C430.574 161.469 429.944 161.22 429.343 160.722C428.757 160.238 428.464 159.696 428.464 159.096C428.464 157.909 428.647 156.54 429.014 154.987C431.196 146.271 432.39 137.226 432.595 127.851V127.411C432.595 125.448 432.646 124.145 432.749 123.5C432.866 122.841 433.181 122.262 433.694 121.764C434.221 121.266 434.961 121.017 435.913 121.017C437.51 121.017 438.308 122.24 438.308 124.687C438.308 125.683 438.125 127.375 437.759 129.762L437.539 131.278C439.209 128.495 441.194 126.188 443.494 124.357C445.793 122.511 447.852 121.588 449.668 121.588C451.309 121.588 452.7 122.174 453.843 123.346C455 124.518 455.579 125.99 455.579 127.763C455.579 132.494 453.74 136.801 450.063 140.683C446.401 144.55 442.776 146.483 439.187 146.483C437.488 146.483 436.396 145.802 435.913 144.44ZM448.811 126.576C447.024 126.576 444.702 128.319 441.846 131.806C439.004 135.292 437.583 138.031 437.583 140.023C437.583 140.536 437.832 140.998 438.33 141.408C438.843 141.803 439.436 142.001 440.11 142.001C441.97 142.001 444.102 140.543 446.504 137.628C448.921 134.699 450.129 131.872 450.129 129.147C450.129 128.239 449.99 127.587 449.712 127.191C449.434 126.781 449.133 126.576 448.811 126.576ZM467.167 144.44C466.918 145.465 466.669 147.018 466.42 149.098L465.365 157.733C465.189 159.14 464.845 160.114 464.333 160.656C463.834 161.198 463.219 161.469 462.487 161.469C461.828 161.469 461.198 161.22 460.597 160.722C460.011 160.238 459.718 159.696 459.718 159.096C459.718 157.909 459.901 156.54 460.268 154.987C462.45 146.271 463.644 137.226 463.849 127.851V127.411C463.849 125.448 463.9 124.145 464.003 123.5C464.12 122.841 464.435 122.262 464.948 121.764C465.475 121.266 466.215 121.017 467.167 121.017C468.764 121.017 469.562 122.24 469.562 124.687C469.562 125.683 469.379 127.375 469.013 129.762L468.793 131.278C470.463 128.495 472.448 126.188 474.748 124.357C477.047 122.511 479.105 121.588 480.922 121.588C482.562 121.588 483.954 122.174 485.097 123.346C486.254 124.518 486.833 125.99 486.833 127.763C486.833 132.494 484.994 136.801 481.317 140.683C477.655 144.55 474.03 146.483 470.441 146.483C468.742 146.483 467.65 145.802 467.167 144.44ZM480.065 126.576C478.278 126.576 475.956 128.319 473.1 131.806C470.258 135.292 468.837 138.031 468.837 140.023C468.837 140.536 469.086 140.998 469.584 141.408C470.097 141.803 470.69 142.001 471.364 142.001C473.224 142.001 475.355 140.543 477.758 137.628C480.175 134.699 481.383 131.872 481.383 129.147C481.383 128.239 481.244 127.587 480.966 127.191C480.688 126.781 480.387 126.576 480.065 126.576ZM498.816 135.102L499.19 134.398C500.962 130.839 502.867 127.953 504.903 125.741C506.954 123.515 508.953 122.401 510.901 122.401C512.396 122.401 513.611 122.812 514.549 123.632C515.501 124.452 515.977 125.426 515.977 126.554C515.977 127.257 515.816 127.865 515.494 128.378C515.171 128.876 514.725 129.125 514.153 129.125C513.245 129.125 512.417 128.751 511.67 128.004C511.143 127.521 510.726 127.279 510.418 127.279C509.319 127.279 507.481 128.986 504.903 132.399C502.325 135.812 500.772 139.65 500.245 143.913C500.083 145.143 499.725 146 499.168 146.483C498.611 146.981 497.857 147.23 496.905 147.23C495.894 147.23 495.176 146.659 494.751 145.517C494.327 144.359 494.114 142.477 494.114 139.87C494.114 138.8 494.144 137.357 494.202 135.541C494.261 133.827 494.429 131.732 494.708 129.257C494.781 128.612 494.832 128.107 494.861 127.741C494.993 126.305 495.14 125.324 495.301 124.796C495.477 124.254 495.872 123.749 496.487 123.28C497.103 122.812 497.784 122.577 498.531 122.577C499.322 122.577 499.922 122.804 500.333 123.258C500.743 123.712 500.948 124.21 500.948 124.752C500.948 125.441 500.618 126.869 499.959 129.037C499.725 129.784 499.527 130.678 499.366 131.718L498.816 135.102ZM539.189 134.86C538.208 138.288 536.34 141.181 533.586 143.539C530.847 145.883 528.107 147.055 525.368 147.055C523.2 147.055 521.413 146.264 520.007 144.682C518.601 143.085 517.897 141.129 517.897 138.815C517.897 135.036 519.187 131.315 521.765 127.653C524.343 123.991 527.47 122.16 531.147 122.16C533.652 122.16 535.681 123.09 537.233 124.95C538.786 126.796 539.562 129 539.562 131.564C539.562 132.677 539.438 133.769 539.189 134.838V134.86ZM527.763 127.917C526.738 128.825 525.734 130.275 524.753 132.267C523.771 134.259 523.281 136.259 523.281 138.266C523.281 139.481 523.5 140.485 523.94 141.276C524.394 142.067 524.987 142.462 525.72 142.462C527.536 142.462 529.426 141.386 531.389 139.232C533.352 137.079 534.333 134.662 534.333 131.981C534.333 130.473 534.011 129.235 533.366 128.268C532.736 127.287 531.85 126.796 530.708 126.796C529.624 126.796 528.649 127.169 527.785 127.917H527.763ZM550.074 145.78C550.089 144.813 549.51 142.733 548.338 139.54C545.98 133.227 544.801 128.729 544.801 126.049C544.801 123.646 545.746 122.445 547.635 122.445C549.481 122.445 550.404 123.544 550.404 125.741C550.404 127.147 550.433 128.151 550.492 128.751C550.565 129.337 550.792 130.414 551.173 131.981C551.568 133.534 551.957 134.831 552.337 135.871C552.557 136.5 552.821 137.321 553.128 138.332C553.304 138.961 553.458 139.401 553.59 139.65C553.678 139.518 553.985 138.947 554.513 137.936C554.82 137.321 555.86 135.578 557.633 132.707C559.405 129.821 560.958 127.521 562.291 125.807C563.639 124.093 564.642 123.046 565.301 122.665C565.96 122.284 566.656 122.094 567.389 122.094C568.15 122.094 568.773 122.343 569.256 122.841C569.754 123.339 570.003 123.947 570.003 124.665C570.003 125.514 569.388 126.349 568.158 127.169C566.957 127.99 565.316 129.865 563.236 132.794C561.17 135.724 558.944 139.408 556.556 143.847C555.208 146.381 554 147.648 552.931 147.648C552.008 147.648 551.056 147.025 550.074 145.78ZM592.424 138.441C592.424 139.965 591.143 141.789 588.579 143.913C586.016 146.022 583.123 147.077 579.9 147.077C577.424 147.077 575.476 146.3 574.055 144.748C572.634 143.18 571.924 141.005 571.924 138.222C571.924 134.12 573.374 130.275 576.274 126.686C579.175 123.097 582.273 121.303 585.569 121.303C587.209 121.303 588.528 121.823 589.524 122.863C590.52 123.903 591.018 125.141 591.018 126.576C591.018 129.125 589.795 131.557 587.349 133.871C584.902 136.171 581.768 137.76 577.944 138.639C577.505 138.742 577.285 139.005 577.285 139.43C577.285 140.133 577.593 140.807 578.208 141.452C578.838 142.082 579.673 142.396 580.713 142.396C583.657 142.396 586.58 140.88 589.48 137.848C590.037 137.262 590.579 136.969 591.106 136.969C591.985 136.969 592.424 137.46 592.424 138.441ZM577.681 134.552C579.995 134.083 582.031 133.095 583.789 131.586C585.562 130.077 586.448 128.708 586.448 127.477C586.448 126.994 586.309 126.591 586.03 126.269C585.767 125.932 585.422 125.763 584.998 125.763C583.723 125.763 582.31 126.701 580.757 128.576C579.204 130.451 578.179 132.443 577.681 134.552ZM613.878 138.661C610.084 144.037 606.269 146.725 602.431 146.725C600.878 146.725 599.625 146.117 598.673 144.901C597.721 143.671 597.245 142.111 597.245 140.221C597.245 136.398 598.805 132.597 601.925 128.817C605.06 125.038 608.231 123.148 611.439 123.148C613.285 123.148 614.596 123.632 615.373 124.599C616.471 119.794 617.123 116.791 617.328 115.59C617.768 113.363 618.134 111.884 618.427 111.151C618.72 110.419 619.167 109.855 619.767 109.459C620.368 109.049 620.888 108.844 621.327 108.844C622.074 108.844 622.646 109.152 623.041 109.767C623.437 110.382 623.634 111.159 623.634 112.096C623.634 112.506 623.312 113.686 622.667 115.634C621.613 118.798 620.631 122.621 619.723 127.104C618.83 131.586 618.383 135.153 618.383 137.804C618.383 140.338 618.939 141.605 620.053 141.605C620.624 141.605 621.232 141.452 621.876 141.144C622.521 140.851 622.975 140.705 623.239 140.705C623.957 140.705 624.315 141.122 624.315 141.957C624.315 142.968 623.583 143.979 622.118 144.989C620.668 145.985 619.291 146.483 617.987 146.483C616.581 146.483 615.497 145.729 614.735 144.22C613.974 142.711 613.688 140.858 613.878 138.661ZM611.439 127.389C609.521 127.389 607.514 128.854 605.419 131.784C603.339 134.713 602.299 137.394 602.299 139.826C602.299 141.247 602.826 141.957 603.881 141.957C605.668 141.957 607.799 140.368 610.275 137.189C612.75 134.01 613.988 131.498 613.988 129.652C613.988 129.096 613.754 128.583 613.285 128.114C612.816 127.631 612.201 127.389 611.439 127.389ZM652.722 124.665C654.143 116.242 655.161 111.254 655.776 109.701C656.406 108.148 657.497 107.372 659.05 107.372C660.251 107.372 660.852 108.434 660.852 110.558C660.852 112.008 660.251 115.019 659.05 119.589C658.42 121.845 657.658 125.258 656.765 129.828C658.581 127.411 660.559 125.456 662.697 123.961C664.851 122.467 666.77 121.72 668.454 121.72C669.831 121.72 670.974 122.313 671.882 123.5C672.805 124.672 673.266 126.056 673.266 127.653C673.266 132.165 671.53 136.405 668.059 140.375C664.602 144.345 660.925 146.33 657.028 146.33C655.856 146.33 654.765 146.015 653.754 145.385C652.744 144.74 652.172 143.92 652.041 142.924C651.982 142.382 651.872 142.023 651.711 141.847C651.55 141.671 651.381 141.481 651.206 141.276C650.781 140.836 650.568 140.221 650.568 139.43C650.568 138.522 650.795 136.632 651.25 133.761L652.722 124.665ZM655.314 140.265C655.93 141.291 656.618 141.803 657.38 141.803C658.757 141.803 660.28 141.173 661.95 139.914C663.635 138.639 665.092 136.852 666.323 134.552C667.568 132.252 668.19 130.341 668.19 128.817C668.19 127.367 667.963 126.642 667.509 126.642C665.18 126.642 662.565 128.349 659.665 131.762C656.765 135.16 655.314 137.995 655.314 140.265ZM700.082 133.058C699.847 136.618 699.43 140.075 698.829 143.429C698.243 146.769 697.372 149.801 696.214 152.526C695.072 155.25 693.834 157.104 692.501 158.085C691.183 159.081 689.608 159.579 687.777 159.579C685.814 159.579 683.932 159.206 682.13 158.458H682.152C680.599 157.814 679.244 156.95 678.087 155.866C676.944 154.782 676.373 153.866 676.373 153.119C676.373 152.431 676.542 151.881 676.878 151.471C677.23 151.061 677.684 150.856 678.241 150.856C678.724 150.856 679.127 151.061 679.449 151.471C681.324 153.888 684.049 155.097 687.623 155.097C689.073 155.097 690.472 153.581 691.82 150.548C693.167 147.516 694.017 143.876 694.369 139.628C689.842 143.202 686.356 144.989 683.91 144.989C682.328 144.989 681.075 144.359 680.152 143.1C679.229 141.84 678.768 140.324 678.768 138.551C678.768 136.779 679.178 134.208 679.999 130.839C680.833 127.455 681.537 125.36 682.108 124.555C682.694 123.734 683.639 123.324 684.942 123.324C685.646 123.324 686.188 123.632 686.568 124.247C686.949 124.848 687.14 125.514 687.14 126.247C687.14 126.466 686.612 127.704 685.558 129.96C684.269 132.714 683.624 135.087 683.624 137.079C683.624 138.104 683.763 138.888 684.042 139.43C684.334 139.958 684.635 140.221 684.942 140.221C685.646 140.221 686.495 140.009 687.491 139.584C688.502 139.159 689.681 138.427 691.029 137.387C692.391 136.332 693.27 135.534 693.666 134.992C694.061 134.45 694.376 133.754 694.61 132.904C694.845 132.04 695.028 130.15 695.16 127.235C695.233 125.536 695.313 124.467 695.401 124.027C695.504 123.588 695.768 123.185 696.192 122.819C696.617 122.453 697.188 122.27 697.906 122.27C698.873 122.27 699.554 122.475 699.95 122.885C700.36 123.295 700.565 124.262 700.565 125.785L700.082 133.058ZM734.289 138.903C734.04 139.518 733.271 140.88 731.981 142.99C730.707 145.084 729.821 146.249 729.323 146.483C728.825 146.732 728.385 146.857 728.004 146.857C727.477 146.857 726.84 146.571 726.093 146C725.36 145.414 724.994 144.813 724.994 144.198C724.994 143.627 726.833 140.543 730.509 134.948C732.516 131.886 734.347 128.854 736.002 125.851C739.328 119.787 741.356 116.264 742.089 115.282C742.836 114.286 743.598 113.788 744.374 113.788C745.619 113.788 746.52 114.11 747.077 114.755C747.355 114.96 747.494 115.451 747.494 116.227C747.494 116.798 747.443 117.26 747.34 117.611C750.021 125.785 752.116 131.571 753.625 134.97C755.148 138.354 756.671 140.807 758.195 142.331C758.957 143.092 759.418 143.605 759.579 143.869C759.755 144.132 759.843 144.484 759.843 144.923C759.843 145.729 759.55 146.403 758.964 146.945C758.378 147.501 757.682 147.78 756.876 147.78C755.763 147.78 754.628 147.135 753.471 145.846C752.328 144.557 751.244 142.785 750.219 140.529C749.208 138.273 748.703 137.006 748.703 136.728C748.703 136.669 748.666 136.64 748.593 136.64C747.802 136.64 746.037 136.918 743.297 137.475C740.573 138.031 738.383 138.573 736.728 139.101C736.303 139.232 735.929 139.298 735.607 139.298C735.036 139.298 734.596 139.167 734.289 138.903ZM746.945 132.179C746.593 131.315 745.553 128.239 743.825 122.951C743.664 122.467 743.554 122.16 743.495 122.028L737.255 133.893C738.178 133.732 739.123 133.585 740.089 133.454C740.734 133.38 742.375 133.073 745.011 132.531C745.656 132.399 746.3 132.282 746.945 132.179ZM773.431 124.203C773.108 125.536 772.903 126.598 772.815 127.389C772.815 127.814 772.669 128.905 772.376 130.663C771.893 133.798 771.651 135.937 771.651 137.079C771.651 139.013 771.768 140.917 772.002 142.792C772.178 144.154 771.9 145.15 771.167 145.78C770.435 146.396 769.703 146.703 768.97 146.703C767.93 146.703 767.19 146.256 766.751 145.363C766.312 144.455 766.092 142.887 766.092 140.661C766.092 139.284 766.436 136.002 767.125 130.817L768.333 122.226C768.582 120.966 768.765 119.794 768.882 118.71C769.058 117.113 769.271 116.132 769.52 115.766C769.783 115.385 770.245 114.989 770.904 114.579C771.563 114.154 772.061 113.942 772.398 113.942C773.248 113.942 773.892 114.286 774.332 114.975C774.786 115.663 775.013 116.505 775.013 117.501L773.431 124.203ZM804.465 138.375C805.578 138.375 806.135 138.917 806.135 140.001C806.135 141.349 804.516 143.012 801.279 144.989C798.056 146.952 794.936 147.934 791.918 147.934C789.252 147.934 786.799 147.062 784.558 145.319C782.316 143.576 781.196 141.034 781.196 137.694C781.196 134.296 782.368 130.524 784.711 126.378C787.055 122.233 789.956 118.856 793.413 116.249C796.884 113.642 800.268 112.338 803.564 112.338C805.527 112.338 807.094 112.924 808.266 114.096C809.438 115.268 810.024 116.637 810.024 118.205C810.024 119.904 809.892 121.127 809.628 121.874C809.365 122.606 808.801 123.236 807.937 123.764C807.072 124.291 806.369 124.555 805.827 124.555C805.271 124.555 804.787 124.357 804.377 123.961C803.967 123.566 803.762 123.031 803.762 122.357C803.762 121.889 803.886 121.208 804.135 120.314C804.37 119.42 804.487 118.673 804.487 118.073C804.487 117.062 804.143 116.557 803.454 116.557C801.345 116.557 798.979 117.685 796.357 119.94C793.735 122.196 791.486 125.001 789.611 128.356C787.751 131.696 786.821 134.647 786.821 137.211C786.821 138.91 787.312 140.346 788.293 141.518C789.274 142.689 790.71 143.275 792.6 143.275C793.713 143.275 795.112 142.975 796.796 142.375C798.496 141.774 800.063 140.961 801.499 139.936C802.949 138.896 803.938 138.375 804.465 138.375ZM832.423 119.94C832.291 120.058 832.174 120.387 832.071 120.929C831.969 121.471 831.668 123.991 831.17 128.488C830.687 132.985 830.445 136.581 830.445 139.276C830.445 140.39 830.577 141.635 830.841 143.012C830.914 143.217 830.951 143.451 830.951 143.715C830.951 144.506 830.716 145.216 830.248 145.846C829.793 146.476 829.208 146.791 828.49 146.791C828.006 146.791 827.391 146.549 826.644 146.066C825.912 145.597 825.472 144.792 825.326 143.649C825.179 142.506 825.106 141.02 825.106 139.188C825.106 136.684 825.399 132.956 825.985 128.004C826.571 123.053 826.922 120.526 827.04 120.424C826.629 120.424 824.989 120.534 822.118 120.753C819.232 120.973 817.555 121.083 817.086 121.083C815.577 121.083 814.53 120.893 813.944 120.512C813.358 120.116 813.065 119.501 813.065 118.666C813.065 117.919 813.373 117.348 813.988 116.952C814.618 116.557 816.2 116.359 818.734 116.359C822.953 116.359 827.091 116.081 831.148 115.524C835.719 114.821 839.183 114.469 841.542 114.469C844.178 114.469 845.782 114.784 846.354 115.414C846.925 116.029 847.21 116.645 847.21 117.26C847.21 118.681 846.581 119.391 845.321 119.391C844.911 119.391 844.251 119.347 843.343 119.259C842.42 119.186 841.344 119.149 840.113 119.149C836.407 119.149 833.844 119.413 832.423 119.94ZM873.125 118.754L866.357 119.105C863.999 119.237 861.97 119.45 860.271 119.743C858.572 120.021 857.649 120.241 857.502 120.402C857.371 120.548 857.275 120.995 857.217 121.742C857.144 122.475 856.88 123.764 856.426 125.609C856.06 127.016 855.84 128.166 855.767 129.059C856.704 129.059 858.052 128.964 859.81 128.773C861.567 128.583 862.812 128.4 863.545 128.224C865.654 127.711 867.288 127.455 868.445 127.455C870.759 127.455 871.917 128.144 871.917 129.521C871.917 130.531 871.594 131.234 870.95 131.63C870.305 132.011 869.294 132.274 867.917 132.421C867.068 132.509 866.116 132.641 865.061 132.816C864.504 132.904 863.809 132.992 862.974 133.08C858.916 133.549 856.521 133.915 855.789 134.179H855.767C855.518 134.252 855.327 134.42 855.195 134.684C855.078 134.948 854.858 136.039 854.536 137.958C854.214 139.862 854.053 141.195 854.053 141.957C854.126 142.499 854.463 142.77 855.063 142.77C855.767 142.77 857.612 142.58 860.601 142.199C863.604 141.803 865.464 141.532 866.182 141.386C868.188 140.961 869.5 140.749 870.115 140.749C871.975 141.012 872.905 141.876 872.905 143.341C872.905 144.015 872.686 144.528 872.246 144.879C870.781 145.539 868.752 145.949 866.16 146.11C864.153 146.227 861.721 146.476 858.865 146.857C856.316 147.399 853.914 147.67 851.658 147.67C850.471 147.67 849.614 147.414 849.087 146.901C848.56 146.403 848.245 145.619 848.142 144.55L848.076 143.825C848.062 143.708 848.186 143.261 848.45 142.484C849.036 140.683 849.753 136.676 850.603 130.465C851.453 124.254 851.877 120.797 851.877 120.094C851.877 120.08 851.833 120.021 851.746 119.918C851.643 119.831 851.467 119.552 851.218 119.083C850.984 118.6 850.867 118.109 850.867 117.611C850.867 117.348 850.896 117.135 850.955 116.974C851.013 116.667 851.328 116.359 851.899 116.051C852.471 115.744 853.005 115.59 853.503 115.59C854.192 115.59 854.888 115.634 855.591 115.722C856.807 115.722 860.762 115.282 867.456 114.403C869.683 114.11 870.847 113.964 870.95 113.964L871.257 113.942C873.894 113.751 875.212 114.601 875.212 116.491C875.212 116.842 874.971 117.282 874.487 117.809C874.019 118.322 873.564 118.637 873.125 118.754ZM881 148.834C881.674 148.717 882.633 148.351 883.878 147.736C885.138 147.135 885.937 146.366 886.273 145.429C886.625 144.477 886.801 143.979 886.801 143.935C886.801 142.675 886.654 141.833 886.361 141.408C886.083 140.983 885.944 140.602 885.944 140.265C885.944 139.855 886.105 139.401 886.427 138.903C886.75 138.39 887.152 138.134 887.636 138.134C888.134 138.134 888.786 138.302 889.591 138.639C890.412 138.976 890.88 139.276 890.998 139.54C891.129 139.789 891.32 140.353 891.569 141.232C891.818 142.096 891.942 142.858 891.942 143.517C891.942 143.795 891.635 144.63 891.02 146.022C890.419 147.414 889.628 148.468 888.646 149.186C887.665 149.904 886.691 150.351 885.724 150.526C885.534 150.556 885.387 150.585 885.285 150.614C883.629 151.215 882.516 151.515 881.945 151.515C880.978 151.515 880.495 150.98 880.495 149.911C880.495 149.53 880.663 149.171 881 148.834ZM919.667 138.771L921.271 131.366C922.502 125.507 923.146 121.42 923.205 119.105C923.249 117.992 923.33 117.238 923.447 116.842C923.579 116.432 923.916 116.044 924.458 115.678C925.014 115.297 925.644 115.106 926.347 115.106C926.801 115.106 927.321 115.253 927.907 115.546C928.493 115.839 928.984 116.769 929.379 118.336C929.995 120.871 931.584 124.24 934.147 128.444C936.711 132.648 939.018 136.017 941.069 138.551C941.625 136.032 942.233 132.758 942.893 128.729C943.361 125.858 943.801 123.368 944.211 121.259C944.548 119.501 944.753 117.941 944.826 116.579C944.899 115.29 945.28 114.425 945.969 113.986C946.672 113.546 947.375 113.327 948.078 113.327C948.679 113.327 949.191 113.664 949.616 114.337C950.056 114.997 950.275 115.824 950.275 116.82C950.275 117.611 950.063 118.732 949.638 120.182C948.715 123.537 947.814 127.865 946.936 133.168C946.057 138.471 945.617 141.496 945.617 142.243V142.99C945.617 143.839 945.544 144.469 945.397 144.879C945.251 145.29 944.892 145.67 944.321 146.022C943.764 146.388 943.032 146.571 942.124 146.571C941.582 146.571 941.186 146.52 940.937 146.417C940.703 146.315 940.38 146.022 939.97 145.539C939.56 145.041 939.128 144.389 938.674 143.583C937.971 142.367 937.451 141.54 937.114 141.1C933.613 136.647 930.244 131.454 927.006 125.521C926.567 127.338 925.893 131.586 924.985 138.266L924.721 140.243C924.604 140.932 924.501 141.928 924.414 143.231C924.311 144.799 923.93 145.927 923.271 146.615C922.626 147.304 922.004 147.648 921.403 147.648C920.451 147.648 919.77 147.399 919.36 146.901C918.964 146.417 918.767 145.436 918.767 143.957C918.767 142.785 919.06 141.1 919.646 138.903L919.667 138.771ZM976.498 138.441C976.498 139.965 975.216 141.789 972.652 143.913C970.089 146.022 967.196 147.077 963.973 147.077C961.498 147.077 959.549 146.3 958.128 144.748C956.708 143.18 955.997 141.005 955.997 138.222C955.997 134.12 957.447 130.275 960.348 126.686C963.248 123.097 966.346 121.303 969.642 121.303C971.283 121.303 972.601 121.823 973.597 122.863C974.593 123.903 975.091 125.141 975.091 126.576C975.091 129.125 973.868 131.557 971.422 133.871C968.976 136.171 965.841 137.76 962.018 138.639C961.578 138.742 961.358 139.005 961.358 139.43C961.358 140.133 961.666 140.807 962.281 141.452C962.911 142.082 963.746 142.396 964.786 142.396C967.73 142.396 970.653 140.88 973.553 137.848C974.11 137.262 974.652 136.969 975.179 136.969C976.058 136.969 976.498 137.46 976.498 138.441ZM961.754 134.552C964.068 134.083 966.104 133.095 967.862 131.586C969.635 130.077 970.521 128.708 970.521 127.477C970.521 126.994 970.382 126.591 970.104 126.269C969.84 125.932 969.496 125.763 969.071 125.763C967.796 125.763 966.383 126.701 964.83 128.576C963.277 130.451 962.252 132.443 961.754 134.552ZM1000.17 132.179C1000.02 132.414 998.911 134.728 996.831 139.123C996.655 139.503 996.553 139.716 996.523 139.76C994.033 144.784 992.114 147.296 990.767 147.296C988.657 147.296 986.812 144.682 985.229 139.452C983.647 134.208 982.856 129.843 982.856 126.356C982.856 125.097 983.149 124.079 983.735 123.302C984.336 122.526 985.186 122.138 986.284 122.138C986.973 122.138 987.581 122.438 988.108 123.039C988.65 123.625 988.921 124.188 988.921 124.73L988.723 127.631C988.665 128.51 988.635 129.389 988.635 130.268C988.635 131.82 988.958 133.886 989.602 136.464C990.247 139.027 990.701 140.309 990.964 140.309C991.155 140.309 991.895 139.005 993.184 136.398C994.868 132.985 996.23 130.407 997.271 128.664H997.249C998.713 125.88 1000.01 124.057 1001.14 123.192C1002.09 123.295 1002.85 123.581 1003.42 124.049C1004.01 124.518 1004.3 125.067 1004.3 125.697C1004.3 126.195 1004.28 126.562 1004.24 126.796C1004.18 127.045 1004.15 127.272 1004.15 127.477C1004.15 131.901 1005.37 135.878 1007.82 139.408C1007.98 139.569 1008.12 139.474 1008.23 139.123C1008.37 138.771 1008.67 137.687 1009.16 135.871C1010.05 132.501 1011.06 129.572 1012.19 127.082C1013.32 124.577 1014.24 123.024 1014.96 122.423C1015.68 121.823 1016.49 121.522 1017.4 121.522C1017.97 121.522 1018.46 121.742 1018.87 122.182C1019.29 122.606 1019.51 123.075 1019.51 123.588C1019.51 124.203 1019.38 124.687 1019.11 125.038C1017.22 127.558 1015.54 131.044 1014.08 135.497C1012.57 140.111 1011.52 142.931 1010.94 143.957C1010.35 144.982 1009.85 145.495 1009.44 145.495C1008.08 145.495 1006.96 145.246 1006.08 144.748C1005.22 144.235 1004.38 143.29 1003.55 141.913C1002.75 140.536 1002.02 138.8 1001.36 136.706C1000.7 134.611 1000.3 133.102 1000.17 132.179ZM1046.27 142.462C1046.43 141.745 1046.55 140.456 1046.64 138.595C1046.98 133.498 1047.61 128.166 1048.53 122.599C1048.76 121.427 1048.88 120.534 1048.88 119.918C1048.88 119.655 1048.76 119.494 1048.53 119.435C1046.98 119.04 1046.2 118.358 1046.2 117.392C1046.2 116.688 1046.51 116.029 1047.14 115.414C1047.79 114.784 1048.47 114.469 1049.19 114.469L1052.15 114.557C1053.5 114.557 1055.35 114.462 1057.71 114.271C1059.72 114.096 1061.35 114.008 1062.61 114.008C1066.7 114.008 1070 115.158 1072.52 117.458C1075.06 119.743 1076.32 122.775 1076.32 126.554C1076.32 130.773 1074.38 134.589 1070.48 138.002C1066.58 141.4 1061.87 143.722 1056.33 144.967C1054.86 145.29 1053.83 145.568 1053.23 145.802C1052.63 146.037 1051.93 146.41 1051.12 146.923C1050.12 147.611 1049.14 147.956 1048.18 147.956C1047.43 147.956 1046.76 147.597 1046.18 146.879C1045.59 146.161 1045.3 145.575 1045.3 145.121C1045.3 144.813 1045.45 144.367 1045.76 143.781L1046.27 142.462ZM1052 141.364C1052.78 141.364 1055 140.8 1058.66 139.672C1062.33 138.529 1065.32 136.779 1067.6 134.42C1069.89 132.062 1071.03 129.374 1071.03 126.356C1071.03 123.939 1070.18 122.021 1068.48 120.6C1066.79 119.164 1064.58 118.446 1061.84 118.446C1059.97 118.446 1057.71 118.622 1055.08 118.974C1054.74 119.018 1054.47 119.047 1054.26 119.062C1052.67 128.847 1051.87 135.753 1051.87 139.782C1051.87 140.529 1051.91 141.056 1052 141.364ZM1102.13 138.441C1102.13 139.965 1100.85 141.789 1098.28 143.913C1095.72 146.022 1092.83 147.077 1089.6 147.077C1087.13 147.077 1085.18 146.3 1083.76 144.748C1082.34 143.18 1081.63 141.005 1081.63 138.222C1081.63 134.12 1083.08 130.275 1085.98 126.686C1088.88 123.097 1091.98 121.303 1095.27 121.303C1096.91 121.303 1098.23 121.823 1099.23 122.863C1100.22 123.903 1100.72 125.141 1100.72 126.576C1100.72 129.125 1099.5 131.557 1097.05 133.871C1094.61 136.171 1091.47 137.76 1087.65 138.639C1087.21 138.742 1086.99 139.005 1086.99 139.43C1086.99 140.133 1087.3 140.807 1087.91 141.452C1088.54 142.082 1089.38 142.396 1090.42 142.396C1093.36 142.396 1096.28 140.88 1099.18 137.848C1099.74 137.262 1100.28 136.969 1100.81 136.969C1101.69 136.969 1102.13 137.46 1102.13 138.441ZM1087.38 134.552C1089.7 134.083 1091.74 133.095 1093.49 131.586C1095.27 130.077 1096.15 128.708 1096.15 127.477C1096.15 126.994 1096.01 126.591 1095.73 126.269C1095.47 125.932 1095.13 125.763 1094.7 125.763C1093.43 125.763 1092.01 126.701 1090.46 128.576C1088.91 130.451 1087.88 132.443 1087.38 134.552ZM1116.09 108.8C1117.67 108.8 1118.46 109.665 1118.46 111.393C1118.46 112.184 1118.35 113.041 1118.13 113.964C1117.91 114.872 1117.31 117.135 1116.33 120.753C1115.61 123.375 1115.06 126.239 1114.68 129.345C1114.32 132.436 1114.13 134.853 1114.13 136.596C1114.13 138.456 1114.27 140.668 1114.55 143.231C1114.62 143.92 1114.66 144.352 1114.66 144.528C1114.66 145.407 1114.34 146.161 1113.69 146.791C1113.05 147.421 1112.35 147.736 1111.59 147.736C1110.55 147.736 1109.81 147.245 1109.39 146.264C1108.96 145.282 1108.75 143.598 1108.75 141.21C1108.75 136.068 1109.35 130.011 1110.55 123.039C1111.77 116.066 1112.76 111.95 1113.52 110.69C1114.3 109.43 1115.15 108.8 1116.09 108.8ZM1128.07 135.871C1130.51 131.315 1132.6 128.217 1134.36 126.576C1136.13 124.921 1137.92 124.093 1139.72 124.093C1140.96 124.093 1142 124.525 1142.82 125.39C1143.65 126.239 1144.26 128.466 1144.64 132.069C1144.8 133.783 1145.01 135.167 1145.26 136.222C1145.51 137.277 1145.78 138.214 1146.09 139.035C1146.4 139.84 1146.84 140.602 1147.41 141.32C1147.85 141.891 1148.07 142.44 1148.07 142.968C1148.07 143.495 1147.81 143.979 1147.3 144.418C1146.8 144.857 1146.22 145.077 1145.56 145.077C1144.26 145.077 1143.1 144.367 1142.09 142.946C1141.08 141.525 1140.48 139.562 1140.29 137.057C1140.06 133.996 1139.8 132.04 1139.52 131.19C1139.26 130.341 1138.81 129.916 1138.18 129.916C1137.33 129.916 1135.68 131.615 1133.22 135.014C1130.77 138.397 1129 141.107 1127.92 143.144C1127.25 144.682 1126.73 145.678 1126.36 146.132C1125.99 146.586 1125.54 146.813 1125 146.813C1124.1 146.813 1123.38 146.593 1122.82 146.154C1122.27 145.714 1121.99 145.092 1121.99 144.286C1121.99 143.891 1122.19 142.653 1122.58 140.573C1124.07 132.707 1125.3 124.335 1126.25 115.458C1126.48 113.319 1126.93 111.847 1127.59 111.042C1128.26 110.221 1128.88 109.811 1129.44 109.811C1130.21 109.811 1130.89 110.111 1131.46 110.712C1132.03 111.312 1132.31 112.147 1132.31 113.217C1132.31 114.857 1132.12 116.747 1131.72 118.886C1131.33 121.024 1130.59 124.438 1129.5 129.125C1128.84 131.952 1128.37 134.201 1128.07 135.871ZM1165.59 113.349C1165.59 114.389 1165.12 115.304 1164.18 116.095C1163.25 116.872 1162.43 117.26 1161.74 117.26C1160.87 117.26 1160.08 116.894 1159.39 116.161C1158.72 115.429 1158.38 114.696 1158.38 113.964C1158.38 112.909 1158.72 112.06 1159.39 111.415C1160.07 110.756 1161.03 110.426 1162.29 110.426C1163.28 110.426 1164.07 110.719 1164.67 111.305C1165.28 111.876 1165.59 112.558 1165.59 113.349ZM1154.98 131.41V131.432C1155.45 128.766 1155.68 127.243 1155.68 126.862C1155.68 125.778 1155.91 124.87 1156.38 124.137C1156.87 123.405 1157.53 123.039 1158.38 123.039C1159.38 123.039 1160.16 123.273 1160.71 123.742C1161.27 124.21 1161.55 124.738 1161.55 125.324C1161.55 125.91 1161.28 127.118 1160.73 128.949L1160.6 129.433C1159.8 132.26 1159.31 134.567 1159.15 136.354C1158.99 138.141 1158.91 139.584 1158.91 140.683C1158.91 141.576 1159.06 142.77 1159.37 144.264C1159.42 144.528 1159.44 144.748 1159.44 144.923C1159.44 145.26 1159.12 145.714 1158.47 146.286C1157.84 146.857 1157.16 147.143 1156.43 147.143C1154.49 147.143 1153.53 145.678 1153.53 142.748C1153.53 140.258 1153.88 137.226 1154.58 133.651C1154.73 132.86 1154.86 132.113 1154.98 131.41Z" fill="#20A345"/>
<path d="M19.472 33.84H39.44V44.72H19.472V33.84ZM20.496 50.608H42.896V62H5.648V17.2H42.064V28.592H20.496V50.608ZM58.6155 62.64C56.2262 62.64 54.2208 61.872 52.5995 60.336C50.9782 58.7573 50.1675 56.752 50.1675 54.32C50.1675 51.8453 50.9782 49.8613 52.5995 48.368C54.2208 46.8747 56.2262 46.128 58.6155 46.128C61.0048 46.128 63.0102 46.8747 64.6315 48.368C66.2528 49.8613 67.0635 51.8453 67.0635 54.32C67.0635 56.752 66.2528 58.7573 64.6315 60.336C63.0102 61.872 61.0048 62.64 58.6155 62.64ZM97.155 63.024C93.5283 63.024 90.179 62.4693 87.107 61.36C84.0777 60.208 81.4323 58.5867 79.171 56.496C76.9523 54.4053 75.2243 51.9307 73.987 49.072C72.7497 46.2133 72.131 43.056 72.131 39.6C72.131 36.144 72.7497 32.9867 73.987 30.128C75.2243 27.2693 76.9737 24.7947 79.235 22.704C81.4963 20.6133 84.163 19.0133 87.235 17.904C90.3497 16.752 93.763 16.176 97.475 16.176C101.912 16.176 105.859 16.9227 109.315 18.416C112.814 19.9093 115.694 22.0427 117.955 24.816L108.291 33.328C106.883 31.7067 105.347 30.4907 103.683 29.68C102.062 28.8267 100.248 28.4 98.243 28.4C96.579 28.4 95.0643 28.656 93.699 29.168C92.3763 29.68 91.2457 30.4267 90.307 31.408C89.3683 32.3893 88.643 33.5627 88.131 34.928C87.619 36.2933 87.363 37.8507 87.363 39.6C87.363 41.264 87.619 42.8 88.131 44.208C88.643 45.5733 89.3683 46.7467 90.307 47.728C91.2457 48.7093 92.355 49.4773 93.635 50.032C94.9577 50.544 96.4297 50.8 98.051 50.8C99.7577 50.8 101.422 50.5227 103.043 49.968C104.664 49.3707 106.392 48.368 108.227 46.96L116.675 57.328C113.944 59.1627 110.83 60.5707 107.331 61.552C103.832 62.5333 100.44 63.024 97.155 63.024ZM103.555 55.408V38.384H116.675V57.328L103.555 55.408ZM133.015 62.64C130.626 62.64 128.621 61.872 126.999 60.336C125.378 58.7573 124.567 56.752 124.567 54.32C124.567 51.8453 125.378 49.8613 126.999 48.368C128.621 46.8747 130.626 46.128 133.015 46.128C135.405 46.128 137.41 46.8747 139.031 48.368C140.653 49.8613 141.463 51.8453 141.463 54.32C141.463 56.752 140.653 58.7573 139.031 60.336C137.41 61.872 135.405 62.64 133.015 62.64ZM166.902 63.024C163.147 63.024 159.521 62.5973 156.022 61.744C152.523 60.8907 149.643 59.7813 147.382 58.416L152.246 47.408C154.379 48.6453 156.747 49.648 159.35 50.416C161.995 51.1413 164.555 51.504 167.03 51.504C168.481 51.504 169.611 51.4187 170.422 51.248C171.275 51.0347 171.894 50.7573 172.278 50.416C172.662 50.032 172.854 49.584 172.854 49.072C172.854 48.2613 172.406 47.6213 171.51 47.152C170.614 46.6827 169.419 46.2987 167.926 46C166.475 45.6587 164.875 45.3173 163.126 44.976C161.377 44.592 159.606 44.1013 157.814 43.504C156.065 42.9067 154.443 42.1173 152.95 41.136C151.499 40.1547 150.326 38.8747 149.43 37.296C148.534 35.6747 148.086 33.6693 148.086 31.28C148.086 28.5067 148.854 25.9893 150.39 23.728C151.969 21.424 154.294 19.5893 157.366 18.224C160.481 16.8587 164.342 16.176 168.95 16.176C171.979 16.176 174.966 16.496 177.91 17.136C180.854 17.776 183.499 18.7573 185.846 20.08L181.302 31.024C179.083 29.9147 176.929 29.0827 174.838 28.528C172.79 27.9733 170.785 27.696 168.822 27.696C167.371 27.696 166.219 27.824 165.366 28.08C164.513 28.336 163.894 28.6773 163.51 29.104C163.169 29.5307 162.998 30 162.998 30.512C162.998 31.28 163.446 31.8987 164.342 32.368C165.238 32.7947 166.411 33.1573 167.862 33.456C169.355 33.7547 170.977 34.0747 172.726 34.416C174.518 34.7573 176.289 35.2267 178.038 35.824C179.787 36.4213 181.387 37.2107 182.838 38.192C184.331 39.1733 185.526 40.4533 186.422 42.032C187.318 43.6107 187.766 45.5733 187.766 47.92C187.766 50.6507 186.977 53.168 185.398 55.472C183.862 57.7333 181.558 59.568 178.486 60.976C175.414 62.3413 171.553 63.024 166.902 63.024ZM202.791 62.64C200.401 62.64 198.396 61.872 196.775 60.336C195.153 58.7573 194.343 56.752 194.343 54.32C194.343 51.8453 195.153 49.8613 196.775 48.368C198.396 46.8747 200.401 46.128 202.791 46.128C205.18 46.128 207.185 46.8747 208.807 48.368C210.428 49.8613 211.239 51.8453 211.239 54.32C211.239 56.752 210.428 58.7573 208.807 60.336C207.185 61.872 205.18 62.64 202.791 62.64ZM241.735 62V17.2H263.303C267.485 17.2 271.09 17.8827 274.119 19.248C277.191 20.6133 279.559 22.576 281.223 25.136C282.887 27.6533 283.719 30.64 283.719 34.096C283.719 37.552 282.887 40.5387 281.223 43.056C279.559 45.5733 277.191 47.536 274.119 48.944C271.09 50.3093 267.485 50.992 263.303 50.992H250.119L256.839 44.528V62H241.735ZM256.839 46.192L250.119 39.344H262.343C264.434 39.344 265.97 38.8747 266.951 37.936C267.975 36.9973 268.487 35.7173 268.487 34.096C268.487 32.4747 267.975 31.1947 266.951 30.256C265.97 29.3173 264.434 28.848 262.343 28.848H250.119L256.839 22V46.192ZM292.05 62V26.992H306.514V62H292.05ZM299.282 24.176C296.637 24.176 294.525 23.472 292.946 22.064C291.367 20.656 290.578 18.9067 290.578 16.816C290.578 14.7253 291.367 12.976 292.946 11.568C294.525 10.16 296.637 9.456 299.282 9.456C301.927 9.456 304.039 10.1173 305.618 11.44C307.197 12.7627 307.986 14.4693 307.986 16.56C307.986 18.7787 307.197 20.6133 305.618 22.064C304.039 23.472 301.927 24.176 299.282 24.176ZM316.125 62V14.512H330.589V62H316.125ZM340.2 62V14.512H354.664V62H340.2ZM385.459 62V55.792L384.435 54.128V42.352C384.435 40.6453 383.902 39.344 382.835 38.448C381.811 37.552 380.126 37.104 377.779 37.104C376.2 37.104 374.6 37.36 372.979 37.872C371.358 38.3413 369.971 39.0027 368.819 39.856L364.211 30.32C366.259 29.04 368.712 28.0587 371.571 27.376C374.43 26.6933 377.224 26.352 379.955 26.352C385.971 26.352 390.622 27.696 393.907 30.384C397.235 33.072 398.899 37.3387 398.899 43.184V62H385.459ZM375.539 62.64C372.68 62.64 370.291 62.1493 368.371 61.168C366.451 60.1867 365 58.8853 364.019 57.264C363.038 55.6 362.547 53.7653 362.547 51.76C362.547 49.4987 363.123 47.5787 364.275 46C365.427 44.4213 367.176 43.2267 369.523 42.416C371.912 41.6053 374.92 41.2 378.547 41.2H385.843V48.176H380.851C379.315 48.176 378.184 48.432 377.459 48.944C376.776 49.4133 376.435 50.1387 376.435 51.12C376.435 51.9307 376.734 52.6133 377.331 53.168C377.971 53.68 378.824 53.936 379.891 53.936C380.872 53.936 381.768 53.68 382.579 53.168C383.432 52.6133 384.051 51.76 384.435 50.608L386.291 54.896C385.736 57.4987 384.563 59.44 382.771 60.72C380.979 62 378.568 62.64 375.539 62.64ZM415.405 75.056C413.485 75.056 411.522 74.7573 409.517 74.16C407.554 73.6053 405.976 72.8587 404.781 71.92L409.581 62C410.306 62.5547 411.117 63.0027 412.013 63.344C412.952 63.6853 413.848 63.856 414.701 63.856C415.981 63.856 416.962 63.5787 417.645 63.024C418.328 62.512 418.882 61.7227 419.309 60.656L420.781 56.944L421.805 55.536L433.005 26.992H446.701L432.301 62.704C431.021 65.904 429.528 68.4 427.821 70.192C426.157 71.984 424.28 73.2427 422.189 73.968C420.141 74.6933 417.88 75.056 415.405 75.056ZM418.797 63.6L403.565 26.992H418.413L428.909 54.256L418.797 63.6ZM474.948 62V17.2H496.516C500.697 17.2 504.303 17.8827 507.332 19.248C510.404 20.6133 512.772 22.576 514.436 25.136C516.1 27.6533 516.932 30.64 516.932 34.096C516.932 37.552 516.1 40.5387 514.436 43.056C512.772 45.5733 510.404 47.536 507.332 48.944C504.303 50.3093 500.697 50.992 496.516 50.992H483.332L490.052 44.528V62H474.948ZM490.052 46.192L483.332 39.344H495.556C497.647 39.344 499.183 38.8747 500.164 37.936C501.188 36.9973 501.7 35.7173 501.7 34.096C501.7 32.4747 501.188 31.1947 500.164 30.256C499.183 29.3173 497.647 28.848 495.556 28.848H483.332L490.052 22V46.192ZM543.134 62.64C539.166 62.64 535.646 61.872 532.574 60.336C529.544 58.7573 527.155 56.6027 525.406 53.872C523.656 51.1413 522.782 48.0053 522.782 44.464C522.782 40.9227 523.656 37.7867 525.406 35.056C527.155 32.3253 529.544 30.192 532.574 28.656C535.646 27.12 539.166 26.352 543.134 26.352C547.102 26.352 550.622 27.12 553.694 28.656C556.766 30.192 559.155 32.3253 560.862 35.056C562.611 37.7867 563.486 40.9227 563.486 44.464C563.486 48.0053 562.611 51.1413 560.862 53.872C559.155 56.6027 556.766 58.7573 553.694 60.336C550.622 61.872 547.102 62.64 543.134 62.64ZM543.134 51.376C544.2 51.376 545.16 51.12 546.014 50.608C546.867 50.096 547.55 49.328 548.062 48.304C548.574 47.2373 548.83 45.9573 548.83 44.464C548.83 42.928 548.574 41.6693 548.062 40.688C547.55 39.664 546.867 38.896 546.014 38.384C545.16 37.872 544.2 37.616 543.134 37.616C542.067 37.616 541.107 37.872 540.253 38.384C539.4 38.896 538.718 39.664 538.206 40.688C537.694 41.6693 537.438 42.928 537.438 44.464C537.438 45.9573 537.694 47.2373 538.206 48.304C538.718 49.328 539.4 50.096 540.253 50.608C541.107 51.12 542.067 51.376 543.134 51.376ZM571.213 62V14.512H585.677V62H571.213ZM602.968 75.056C601.048 75.056 599.085 74.7573 597.08 74.16C595.117 73.6053 593.538 72.8587 592.344 71.92L597.144 62C597.869 62.5547 598.68 63.0027 599.576 63.344C600.514 63.6853 601.41 63.856 602.264 63.856C603.544 63.856 604.525 63.5787 605.208 63.024C605.89 62.512 606.445 61.7227 606.872 60.656L608.344 56.944L609.368 55.536L620.568 26.992H634.264L619.864 62.704C618.584 65.904 617.09 68.4 615.384 70.192C613.72 71.984 611.842 73.2427 609.752 73.968C607.704 74.6933 605.442 75.056 602.968 75.056ZM606.36 63.6L591.128 26.992H605.976L616.472 54.256L606.36 63.6ZM657.508 62.64C652.687 62.64 648.932 61.488 646.244 59.184C643.556 56.8373 642.212 53.2533 642.212 48.432V19.12H656.676V48.304C656.676 49.3707 656.954 50.2027 657.508 50.8C658.106 51.3973 658.831 51.696 659.684 51.696C660.922 51.696 662.01 51.376 662.948 50.736L666.404 60.784C665.295 61.424 663.951 61.8933 662.372 62.192C660.836 62.4907 659.215 62.64 657.508 62.64ZM637.412 39.472V28.912H663.844V39.472H637.412ZM691.64 62.64C687.374 62.64 683.64 61.8507 680.44 60.272C677.283 58.6933 674.83 56.5387 673.08 53.808C671.331 51.0347 670.456 47.92 670.456 44.464C670.456 40.9227 671.31 37.7867 673.016 35.056C674.766 32.3253 677.134 30.192 680.12 28.656C683.15 27.12 686.542 26.352 690.296 26.352C693.752 26.352 696.931 27.0347 699.832 28.4C702.776 29.7653 705.123 31.792 706.872 34.48C708.664 37.168 709.56 40.496 709.56 44.464C709.56 44.976 709.539 45.552 709.496 46.192C709.454 46.7893 709.411 47.344 709.368 47.856H682.424V40.88H701.688L696.248 42.736C696.248 41.3707 695.992 40.2187 695.48 39.28C695.011 38.2987 694.35 37.552 693.496 37.04C692.643 36.4853 691.619 36.208 690.424 36.208C689.23 36.208 688.184 36.4853 687.288 37.04C686.435 37.552 685.774 38.2987 685.304 39.28C684.835 40.2187 684.6 41.3707 684.6 42.736V44.912C684.6 46.4053 684.899 47.6853 685.496 48.752C686.094 49.8187 686.947 50.6293 688.056 51.184C689.166 51.696 690.51 51.952 692.088 51.952C693.71 51.952 695.032 51.7387 696.056 51.312C697.123 50.8853 698.232 50.2453 699.384 49.392L706.936 57.008C705.23 58.8427 703.118 60.2507 700.6 61.232C698.126 62.1707 695.139 62.64 691.64 62.64ZM736.141 62.64C732.13 62.64 728.568 61.872 725.453 60.336C722.338 58.8 719.885 56.6667 718.093 53.936C716.344 51.1627 715.469 48.0053 715.469 44.464C715.469 40.9227 716.344 37.7867 718.093 35.056C719.885 32.3253 722.338 30.192 725.453 28.656C728.568 27.12 732.13 26.352 736.141 26.352C740.408 26.352 744.056 27.2693 747.085 29.104C750.114 30.9387 752.205 33.4773 753.357 36.72L742.157 42.224C741.432 40.6027 740.536 39.4293 739.469 38.704C738.445 37.9787 737.314 37.616 736.077 37.616C735.01 37.616 734.008 37.872 733.069 38.384C732.173 38.896 731.448 39.664 730.893 40.688C730.381 41.6693 730.125 42.928 730.125 44.464C730.125 46 730.381 47.28 730.893 48.304C731.448 49.328 732.173 50.096 733.069 50.608C734.008 51.12 735.01 51.376 736.077 51.376C737.314 51.376 738.445 51.0133 739.469 50.288C740.536 49.5627 741.432 48.3893 742.157 46.768L753.357 52.272C752.205 55.5147 750.114 58.0533 747.085 59.888C744.056 61.7227 740.408 62.64 736.141 62.64ZM784.22 26.352C786.908 26.352 789.34 26.9067 791.516 28.016C793.692 29.0827 795.399 30.768 796.636 33.072C797.916 35.376 798.556 38.3627 798.556 42.032V62H784.092V44.528C784.092 42.352 783.708 40.816 782.94 39.92C782.172 38.9813 781.127 38.512 779.804 38.512C778.823 38.512 777.905 38.7467 777.052 39.216C776.241 39.6427 775.58 40.368 775.068 41.392C774.599 42.416 774.364 43.8027 774.364 45.552V62H759.9V14.512H774.364V37.232L770.908 34.288C772.273 31.6427 774.108 29.6587 776.412 28.336C778.759 27.0133 781.361 26.352 784.22 26.352ZM832.358 26.352C835.046 26.352 837.478 26.9067 839.654 28.016C841.83 29.0827 843.536 30.768 844.774 33.072C846.054 35.376 846.694 38.3627 846.694 42.032V62H832.23V44.528C832.23 42.352 831.846 40.816 831.078 39.92C830.31 38.9813 829.264 38.512 827.942 38.512C826.96 38.512 826.043 38.7467 825.19 39.216C824.379 39.6427 823.718 40.368 823.206 41.392C822.736 42.416 822.502 43.8027 822.502 45.552V62H808.038V26.992H821.798V37.232L819.046 34.288C820.411 31.6427 822.246 29.6587 824.55 28.336C826.896 27.0133 829.499 26.352 832.358 26.352ZM856.175 62V26.992H870.639V62H856.175ZM863.407 24.176C860.762 24.176 858.65 23.472 857.071 22.064C855.492 20.656 854.703 18.9067 854.703 16.816C854.703 14.7253 855.492 12.976 857.071 11.568C858.65 10.16 860.762 9.456 863.407 9.456C866.052 9.456 868.164 10.1173 869.743 11.44C871.322 12.7627 872.111 14.4693 872.111 16.56C872.111 18.7787 871.322 20.6133 869.743 22.064C868.164 23.472 866.052 24.176 863.407 24.176ZM899.066 62.64C895.055 62.64 891.493 61.872 888.378 60.336C885.263 58.8 882.81 56.6667 881.018 53.936C879.269 51.1627 878.394 48.0053 878.394 44.464C878.394 40.9227 879.269 37.7867 881.018 35.056C882.81 32.3253 885.263 30.192 888.378 28.656C891.493 27.12 895.055 26.352 899.066 26.352C903.333 26.352 906.981 27.2693 910.01 29.104C913.039 30.9387 915.13 33.4773 916.282 36.72L905.082 42.224C904.357 40.6027 903.461 39.4293 902.394 38.704C901.37 37.9787 900.239 37.616 899.002 37.616C897.935 37.616 896.933 37.872 895.994 38.384C895.098 38.896 894.373 39.664 893.818 40.688C893.306 41.6693 893.05 42.928 893.05 44.464C893.05 46 893.306 47.28 893.818 48.304C894.373 49.328 895.098 50.096 895.994 50.608C896.933 51.12 897.935 51.376 899.002 51.376C900.239 51.376 901.37 51.0133 902.394 50.288C903.461 49.5627 904.357 48.3893 905.082 46.768L916.282 52.272C915.13 55.5147 913.039 58.0533 910.01 59.888C906.981 61.7227 903.333 62.64 899.066 62.64ZM968.829 63.024C965.245 63.024 961.917 62.4693 958.845 61.36C955.815 60.208 953.17 58.5867 950.909 56.496C948.69 54.4053 946.962 51.9307 945.725 49.072C944.487 46.2133 943.869 43.056 943.869 39.6C943.869 36.144 944.487 32.9867 945.725 30.128C946.962 27.2693 948.69 24.7947 950.909 22.704C953.17 20.6133 955.815 19.0133 958.845 17.904C961.917 16.752 965.245 16.176 968.829 16.176C973.223 16.176 977.106 16.944 980.477 18.48C983.89 20.016 986.706 22.2347 988.925 25.136L979.389 33.648C978.066 31.984 976.594 30.704 974.973 29.808C973.394 28.8693 971.602 28.4 969.597 28.4C968.018 28.4 966.589 28.656 965.309 29.168C964.029 29.68 962.919 30.4267 961.981 31.408C961.085 32.3893 960.381 33.584 959.869 34.992C959.357 36.3573 959.101 37.8933 959.101 39.6C959.101 41.3067 959.357 42.864 959.869 44.272C960.381 45.6373 961.085 46.8107 961.981 47.792C962.919 48.7733 964.029 49.52 965.309 50.032C966.589 50.544 968.018 50.8 969.597 50.8C971.602 50.8 973.394 50.352 974.973 49.456C976.594 48.5173 978.066 47.216 979.389 45.552L988.925 54.064C986.706 56.9227 983.89 59.1413 980.477 60.72C977.106 62.256 973.223 63.024 968.829 63.024ZM1013.6 62.64C1009.63 62.64 1006.11 61.872 1003.04 60.336C1000.01 58.7573 997.617 56.6027 995.868 53.872C994.119 51.1413 993.244 48.0053 993.244 44.464C993.244 40.9227 994.119 37.7867 995.868 35.056C997.617 32.3253 1000.01 30.192 1003.04 28.656C1006.11 27.12 1009.63 26.352 1013.6 26.352C1017.56 26.352 1021.08 27.12 1024.16 28.656C1027.23 30.192 1029.62 32.3253 1031.32 35.056C1033.07 37.7867 1033.95 40.9227 1033.95 44.464C1033.95 48.0053 1033.07 51.1413 1031.32 53.872C1029.62 56.6027 1027.23 58.7573 1024.16 60.336C1021.08 61.872 1017.56 62.64 1013.6 62.64ZM1013.6 51.376C1014.66 51.376 1015.62 51.12 1016.48 50.608C1017.33 50.096 1018.01 49.328 1018.52 48.304C1019.04 47.2373 1019.29 45.9573 1019.29 44.464C1019.29 42.928 1019.04 41.6693 1018.52 40.688C1018.01 39.664 1017.33 38.896 1016.48 38.384C1015.62 37.872 1014.66 37.616 1013.6 37.616C1012.53 37.616 1011.57 37.872 1010.72 38.384C1009.86 38.896 1009.18 39.664 1008.67 40.688C1008.16 41.6693 1007.9 42.928 1007.9 44.464C1007.9 45.9573 1008.16 47.2373 1008.67 48.304C1009.18 49.328 1009.86 50.096 1010.72 50.608C1011.57 51.12 1012.53 51.376 1013.6 51.376ZM1041.67 62V14.512H1056.14V62H1041.67ZM1065.75 62V14.512H1080.21V62H1065.75ZM1109.15 62.64C1104.89 62.64 1101.15 61.8507 1097.95 60.272C1094.8 58.6933 1092.34 56.5387 1090.59 53.808C1088.84 51.0347 1087.97 47.92 1087.97 44.464C1087.97 40.9227 1088.82 37.7867 1090.53 35.056C1092.28 32.3253 1094.65 30.192 1097.63 28.656C1100.66 27.12 1104.05 26.352 1107.81 26.352C1111.27 26.352 1114.44 27.0347 1117.35 28.4C1120.29 29.7653 1122.64 31.792 1124.39 34.48C1126.18 37.168 1127.07 40.496 1127.07 44.464C1127.07 44.976 1127.05 45.552 1127.01 46.192C1126.97 46.7893 1126.92 47.344 1126.88 47.856H1099.94V40.88H1119.2L1113.76 42.736C1113.76 41.3707 1113.51 40.2187 1112.99 39.28C1112.52 38.2987 1111.86 37.552 1111.01 37.04C1110.16 36.4853 1109.13 36.208 1107.94 36.208C1106.74 36.208 1105.7 36.4853 1104.8 37.04C1103.95 37.552 1103.29 38.2987 1102.82 39.28C1102.35 40.2187 1102.11 41.3707 1102.11 42.736V44.912C1102.11 46.4053 1102.41 47.6853 1103.01 48.752C1103.61 49.8187 1104.46 50.6293 1105.57 51.184C1106.68 51.696 1108.02 51.952 1109.6 51.952C1111.22 51.952 1112.55 51.7387 1113.57 51.312C1114.64 50.8853 1115.75 50.2453 1116.9 49.392L1124.45 57.008C1122.74 58.8427 1120.63 60.2507 1118.11 61.232C1115.64 62.1707 1112.65 62.64 1109.15 62.64ZM1152.63 75.056C1149.17 75.056 1145.93 74.6933 1142.9 73.968C1139.87 73.2427 1137.27 72.1547 1135.09 70.704L1139.96 60.848C1141.32 61.9147 1143.05 62.7467 1145.14 63.344C1147.27 63.984 1149.28 64.304 1151.16 64.304C1154.14 64.304 1156.28 63.664 1157.56 62.384C1158.84 61.1467 1159.48 59.3547 1159.48 57.008V54.064L1160.12 43.184L1160.18 32.304V26.992H1173.94V55.024C1173.94 61.808 1172.06 66.8427 1168.31 70.128C1164.55 73.4133 1159.33 75.056 1152.63 75.056ZM1149.81 60.08C1146.87 60.08 1144.12 59.3973 1141.56 58.032C1139 56.624 1136.93 54.6613 1135.35 52.144C1133.77 49.6267 1132.98 46.64 1132.98 43.184C1132.98 39.728 1133.77 36.7413 1135.35 34.224C1136.93 31.7067 1139 29.7653 1141.56 28.4C1144.12 27.0347 1146.87 26.352 1149.81 26.352C1152.84 26.352 1155.32 26.9493 1157.24 28.144C1159.2 29.3387 1160.65 31.1947 1161.59 33.712C1162.53 36.1867 1163 39.344 1163 43.184C1163 47.024 1162.53 50.2027 1161.59 52.72C1160.65 55.1947 1159.2 57.0507 1157.24 58.288C1155.32 59.4827 1152.84 60.08 1149.81 60.08ZM1153.65 48.816C1154.81 48.816 1155.83 48.5813 1156.73 48.112C1157.62 47.6427 1158.33 46.9813 1158.84 46.128C1159.35 45.2747 1159.61 44.2933 1159.61 43.184C1159.61 42.032 1159.35 41.0507 1158.84 40.24C1158.33 39.3867 1157.62 38.7467 1156.73 38.32C1155.83 37.8507 1154.81 37.616 1153.65 37.616C1152.54 37.616 1151.52 37.8507 1150.58 38.32C1149.69 38.7467 1148.96 39.3867 1148.41 40.24C1147.89 41.0507 1147.64 42.032 1147.64 43.184C1147.64 44.2933 1147.89 45.2747 1148.41 46.128C1148.96 46.9813 1149.69 47.6427 1150.58 48.112C1151.52 48.5813 1152.54 48.816 1153.65 48.816ZM1202.87 62.64C1198.6 62.64 1194.87 61.8507 1191.67 60.272C1188.51 58.6933 1186.05 56.5387 1184.31 53.808C1182.56 51.0347 1181.68 47.92 1181.68 44.464C1181.68 40.9227 1182.53 37.7867 1184.24 35.056C1185.99 32.3253 1188.36 30.192 1191.35 28.656C1194.37 27.12 1197.77 26.352 1201.52 26.352C1204.98 26.352 1208.16 27.0347 1211.06 28.4C1214 29.7653 1216.35 31.792 1218.1 34.48C1219.89 37.168 1220.79 40.496 1220.79 44.464C1220.79 44.976 1220.76 45.552 1220.72 46.192C1220.68 46.7893 1220.64 47.344 1220.59 47.856H1193.65V40.88H1212.91L1207.47 42.736C1207.47 41.3707 1207.22 40.2187 1206.71 39.28C1206.24 38.2987 1205.57 37.552 1204.72 37.04C1203.87 36.4853 1202.84 36.208 1201.65 36.208C1200.45 36.208 1199.41 36.4853 1198.51 37.04C1197.66 37.552 1197 38.2987 1196.53 39.28C1196.06 40.2187 1195.83 41.3707 1195.83 42.736V44.912C1195.83 46.4053 1196.12 47.6853 1196.72 48.752C1197.32 49.8187 1198.17 50.6293 1199.28 51.184C1200.39 51.696 1201.73 51.952 1203.31 51.952C1204.93 51.952 1206.26 51.7387 1207.28 51.312C1208.35 50.8853 1209.46 50.2453 1210.61 49.392L1218.16 57.008C1216.45 58.8427 1214.34 60.2507 1211.83 61.232C1209.35 62.1707 1206.36 62.64 1202.87 62.64Z" fill="#394141"/>
</svg>
